<svg width="41" height="40" viewBox="0 0 41 40" fill="none" xmlns="http://www.w3.org/2000/svg">
<path d="M39.8673 24.6268L32.5067 20.1875C32.3034 20.0647 32.0705 19.9998 31.833 19.9998C31.5955 19.9998 31.3626 20.0647 31.1593 20.1875L28.44 21.8281L23.4 18.4669L28.5333 15.3702C28.7259 15.2533 28.8852 15.0889 28.996 14.8928C29.1069 14.6967 29.1657 14.4755 29.1667 14.2502V5.75032C29.1662 5.52468 29.1078 5.30293 28.997 5.10635C28.8862 4.90977 28.7268 4.74494 28.534 4.62767L21.1733 0.187715C20.9701 0.0649107 20.7371 0 20.4997 0C20.2622 0 20.0292 0.0649107 19.826 0.187715L12.466 4.62767C12.2732 4.74494 12.1138 4.90977 12.003 5.10635C11.8922 5.30293 11.8338 5.52468 11.8333 5.75032V14.2502C11.8338 14.4759 11.8922 14.6976 12.003 14.8942C12.1138 15.0908 12.2732 15.2556 12.466 15.3729L17.5993 18.4695L12.5593 21.8281L9.83933 20.1875C9.63609 20.0647 9.40313 19.9998 9.16567 19.9998C8.9282 19.9998 8.69525 20.0647 8.492 20.1875L1.132 24.6275C0.939433 24.7449 0.780214 24.9098 0.669564 25.1063C0.558914 25.3029 0.500532 25.5245 0.5 25.7501L0.5 34.25C0.500616 34.4757 0.559099 34.6975 0.669862 34.8942C0.780625 35.0908 0.939968 35.2558 1.13267 35.3733L8.49333 39.8126C8.69666 39.9352 8.92958 40 9.167 40C9.40442 40 9.63734 39.9352 9.84067 39.8126L17.2013 35.3727C17.3939 35.2552 17.5531 35.0903 17.6638 34.8938C17.7744 34.6972 17.8328 34.4756 17.8333 34.25V31.3334H23.1667V34.25C23.1673 34.4757 23.2258 34.6975 23.3365 34.8942C23.4473 35.0908 23.6066 35.2558 23.7993 35.3733L31.16 39.8126C31.3633 39.9352 31.5962 40 31.8337 40C32.0711 40 32.304 39.9352 32.5073 39.8126L39.868 35.3727C40.0606 35.2552 40.2198 35.0903 40.3304 34.8938C40.4411 34.6972 40.4995 34.4756 40.5 34.25V25.7501C40.4994 25.5244 40.4409 25.3026 40.3301 25.106C40.2194 24.9093 40.06 24.7443 39.8673 24.6268ZM31.8187 21.3295L38.728 25.4974L31.8253 29.6541L24.9367 25.4974L31.8187 21.3295ZM21.1667 18.2762V10.8096C21.176 10.8043 21.1873 10.8023 21.1967 10.7969L27.8333 6.79031L27.844 14.2309L21.1667 18.2762ZM20.4853 1.3297L27.3947 5.49766L20.492 9.65495L13.6033 5.49766L20.4853 1.3297ZM13.156 6.78498L19.8087 10.8003C19.8167 10.8049 19.8253 10.8063 19.8333 10.8103V18.2609L13.1667 14.2502L13.156 6.78498ZM9.152 21.3295L16.0613 25.4974L9.15867 29.6541L2.27 25.4974L9.152 21.3295ZM1.83333 34.25L1.82333 26.7834L8.47533 30.8001C8.48333 30.8047 8.492 30.8061 8.5 30.8107V38.2606L1.83333 34.25ZM9.83333 38.276V30.8094C9.84267 30.8041 9.854 30.8027 9.86333 30.7967L16.5 26.7901L16.5107 34.2313L9.83333 38.276ZM17.8333 30.0001V25.7501C17.8327 25.5244 17.7742 25.3026 17.6635 25.106C17.5527 24.9093 17.3934 24.7443 17.2007 24.6268L13.822 22.5895L18.862 19.2308L19.8267 19.8128C20.03 19.9354 20.2629 20.0002 20.5003 20.0002C20.7378 20.0002 20.9707 19.9354 21.174 19.8128L22.138 19.2308L27.178 22.5895L23.7987 24.6275C23.6061 24.7449 23.4469 24.9098 23.3362 25.1063C23.2256 25.3029 23.1672 25.5245 23.1667 25.7501V30.0001H17.8333ZM24.5 34.25L24.49 26.7834L31.142 30.8001C31.15 30.8047 31.1587 30.8061 31.1667 30.8107V38.2606L24.5 34.25ZM32.5 38.276V30.8094C32.5093 30.8041 32.5207 30.8027 32.53 30.7967L39.1667 26.7901L39.1773 34.2313L32.5 38.276Z" fill="url(#paint0_linear_223_2524)"/>
<defs>
<linearGradient id="paint0_linear_223_2524" x1="-51.3548" y1="3.3871" x2="70.2581" y2="73.629" gradientUnits="userSpaceOnUse">
<stop stop-color="#59C4D2"/>
<stop offset="0.0001" stop-color="white"/>
<stop offset="1" stop-color="#26C8EB"/>
</linearGradient>
</defs>
</svg>
