<svg width="50" height="44" viewBox="0 0 50 44" fill="none" xmlns="http://www.w3.org/2000/svg">
<path fill-rule="evenodd" clip-rule="evenodd" d="M20.6897 0.0176538H21.1122C21.1176 0.0175528 21.123 0.017553 21.1284 0.0176538H29.3103L50 37.0866L46.5517 43.9832H3.87931L0 37.0866L20.6897 0.0176538ZM37.1923 29.759L21.0335 1.17042L18.2367 6.18143L22.0882 13.139L22.1288 13.1621L22.1147 13.1869L31.2885 29.759H37.1923ZM38.3025 29.9712C38.3403 30.0354 38.3621 30.1102 38.3621 30.1901C38.3621 30.4281 38.1691 30.6211 37.931 30.6211H19.4211L16.0199 36.6556H48.7722L28.8042 0.879723H21.8594L38.3025 29.9712ZM19.907 29.759H30.3032L25.1519 20.4535L19.907 29.759ZM12.3757 43.1211L15.534 37.5177H48.8207L46.0189 43.1211H12.3757ZM24.665 19.5739C24.6501 19.5923 24.6365 19.6123 24.6245 19.6336L11.3861 43.1211H5.05217L21.6148 14.0639L24.665 19.5739ZM21.1259 13.1807L4.22276 42.8354L0.98817 37.085L17.742 7.06776L21.1259 13.1807Z" fill="url(#paint0_linear_207_2357)"/>
<defs>
<linearGradient id="paint0_linear_207_2357" x1="-64.8186" y1="3.74047" x2="76.8051" y2="96.7676" gradientUnits="userSpaceOnUse">
<stop stop-color="#59C4D2"/>
<stop offset="0.0001" stop-color="white"/>
<stop offset="1" stop-color="#26C8EB"/>
</linearGradient>
</defs>
</svg>
