<svg width="50" height="58" viewBox="0 0 50 58" fill="none" xmlns="http://www.w3.org/2000/svg">
<path d="M24.9984 15.6319H0.75223C0.414016 15.6319 0.113384 15.4015 0.0269517 15.073C-0.0594808 14.7446 0.083318 14.3934 0.376437 14.2235L24.6226 0.101947C24.8556 -0.0339823 25.1412 -0.0339823 25.3742 0.101947C25.6072 0.237876 25.75 0.487078 25.75 0.755161V14.8767C25.75 15.292 25.4118 15.6319 24.9984 15.6319ZM3.54813 14.1215H24.2468V2.06915L3.54813 14.1215Z" fill="url(#paint0_linear_207_2306)"/>
<path d="M49.227 15.6323H24.9996C24.5863 15.6323 24.248 15.2924 24.248 14.8771V0.766885C24.248 0.495027 24.3908 0.245819 24.6238 0.113666C24.8568 -0.0222636 25.1424 -0.0222636 25.3754 0.113666L49.6028 14.2239C49.896 14.3938 50.0387 14.7449 49.9523 15.0734C49.8621 15.4019 49.5653 15.6323 49.227 15.6323ZM25.7512 14.1219H46.4311L25.7512 2.07709V14.1219Z" fill="url(#paint1_linear_207_2306)"/>
<path d="M24.9978 57.9919C24.87 57.9919 24.7385 57.9579 24.622 57.8899L0.375794 43.7684C0.142802 43.6324 0 43.3832 0 43.1152C0 42.8471 0.142802 42.5979 0.375794 42.4619L12.5064 35.4087C12.6793 35.3068 12.886 35.2804 13.0776 35.3332C13.2693 35.3861 13.4346 35.5107 13.5323 35.6844L25.6517 56.8553C25.8208 57.1499 25.7719 57.5237 25.5314 57.7653C25.3849 57.9088 25.1932 57.9843 25.0015 57.9843L24.9978 57.9919ZM2.25101 43.1189L22.9497 55.1713L12.6041 37.1003L2.25101 43.1189Z" fill="url(#paint2_linear_207_2306)"/>
<path d="M0.751587 43.8708C0.623817 43.8708 0.492289 43.8369 0.375793 43.7689C0.142802 43.633 0 43.3838 0 43.1157V14.8764C0 14.5328 0.229238 14.2345 0.556178 14.1476C0.883119 14.057 1.23261 14.2043 1.40171 14.4988L13.5323 35.6887C13.739 36.0511 13.615 36.5118 13.258 36.7195L1.12738 43.7727C1.01088 43.8406 0.879357 43.8746 0.751587 43.8746V43.8708ZM1.50317 17.7045V41.8055L11.8563 35.7868L1.50317 17.7007V17.7045Z" fill="url(#paint3_linear_207_2306)"/>
<path d="M24.9982 57.9921C24.8028 57.9921 24.6111 57.9166 24.4683 57.7731C24.2278 57.5315 24.1789 57.1577 24.348 56.8632L36.4674 35.6922C36.5651 35.5185 36.7304 35.3901 36.9221 35.341C37.1137 35.2882 37.3204 35.3146 37.4933 35.4165L49.6202 42.4698C49.8531 42.6057 49.9959 42.8549 49.9959 43.123C49.9959 43.3911 49.8531 43.6403 49.6202 43.7762L25.374 57.8977C25.2575 57.9657 25.1259 57.9997 24.9982 57.9997V57.9921ZM37.3918 37.0968L27.0462 55.1678L47.7449 43.1154L37.3918 37.0968Z" fill="url(#paint4_linear_207_2306)"/>
<path d="M49.2372 15.6431C49.1094 15.6431 48.9853 15.6091 48.8688 15.5449C48.5116 15.3373 48.3838 14.8766 48.5868 14.5179V14.5104C48.7597 14.2121 49.1056 14.0648 49.4364 14.1517C49.7672 14.2385 49.9966 14.5406 49.9966 14.8804C49.9966 15.1485 49.8537 15.4052 49.6206 15.5412C49.5003 15.6091 49.3688 15.6469 49.2372 15.6469V15.6431Z" fill="url(#paint5_linear_207_2306)"/>
<path d="M49.2482 43.8701C49.1166 43.8701 48.9889 43.8361 48.8724 43.7682L36.7455 36.715C36.3885 36.5073 36.2645 36.0466 36.4712 35.6842L48.5905 14.5132C48.6582 14.3961 48.7521 14.3017 48.8649 14.2338C49.0978 14.0979 49.391 14.0979 49.6202 14.2338C49.8532 14.3697 49.9998 14.6151 49.9998 14.8832V43.1112C49.9998 43.3793 49.857 43.6323 49.624 43.7644C49.5075 43.8324 49.3797 43.8664 49.2482 43.8664V43.8701ZM38.1435 35.7861L48.4966 41.8048V17.7037L38.1435 35.7861Z" fill="url(#paint6_linear_207_2306)"/>
<path d="M49.241 15.6434C49.0455 15.6434 48.8538 15.5679 48.7072 15.4244C48.4666 15.1828 48.4139 14.8128 48.5831 14.5145V14.5069C48.7936 14.1444 49.256 14.0236 49.6132 14.2313C49.8462 14.3672 49.9928 14.6164 49.9928 14.8883C49.9928 15.1601 49.85 15.4093 49.6169 15.5453C49.5004 15.6132 49.3688 15.6472 49.2372 15.6472L49.241 15.6434Z" fill="url(#paint7_linear_207_2306)"/>
<path d="M49.2343 15.639C49.1027 15.639 48.9674 15.605 48.8508 15.5332C48.5614 15.3596 48.4148 15.0084 48.505 14.6799C48.5952 14.3514 48.8847 14.1211 49.223 14.1211C49.5613 14.1211 49.8658 14.3476 49.9561 14.6761C50.0463 15.0046 49.9147 15.352 49.6252 15.5257L49.614 15.5332C49.4937 15.605 49.3621 15.639 49.2305 15.639H49.2343Z" fill="url(#paint8_linear_207_2306)"/>
<path d="M24.9965 29.7303C24.865 29.7303 24.7372 29.6963 24.6207 29.6284L0.374484 15.5295C0.0813649 15.3596 -0.0614339 15.0084 0.0249986 14.6799C0.111431 14.3514 0.412063 14.1211 0.750277 14.1211H49.2276C49.3592 14.1211 49.4907 14.1551 49.6034 14.223H49.6147C49.8477 14.3627 49.9905 14.612 49.9905 14.8838C49.9905 15.1557 49.8477 15.4049 49.6147 15.537L25.376 29.6284C25.2595 29.6963 25.128 29.7303 25.0002 29.7303H24.9965ZM3.54618 15.6314L24.9965 28.1029L46.443 15.6314H3.54618Z" fill="url(#paint9_linear_207_2306)"/>
<path d="M24.9983 57.9919C24.7352 57.9919 24.4834 57.8522 24.3481 57.6143L0.101951 15.2535C-0.0671558 14.959 -0.0183113 14.5852 0.222197 14.3435C0.462704 14.1019 0.834741 14.0528 1.12786 14.2265L25.3741 28.3254C25.6071 28.4613 25.7499 28.7105 25.7499 28.9786V57.2405C25.7499 57.5841 25.5206 57.8824 25.1937 57.9693C25.1298 57.9881 25.0659 57.9957 24.9983 57.9957V57.9919ZM2.80015 16.9413L24.2467 54.4087V29.409L2.80015 16.9375V16.9413Z" fill="url(#paint10_linear_207_2306)"/>
<path d="M24.9996 57.9928C24.9357 57.9928 24.8719 57.9852 24.8042 57.9663C24.4735 57.8795 24.248 57.5774 24.248 57.2376V29.0209C24.248 28.7529 24.3908 28.4697 24.6238 28.3337L48.8625 14.2424C49.1556 14.0725 49.5277 14.1178 49.7682 14.3595C50.0087 14.6011 50.0575 14.9749 49.8884 15.2694L25.6497 57.6114C25.5145 57.8493 25.2627 57.989 24.9996 57.989V57.9928ZM25.7512 29.4212V54.4095L47.1902 16.9572L25.7512 29.4212Z" fill="url(#paint11_linear_207_2306)"/>
<path d="M49.2364 15.6397C49.1086 15.6397 48.9808 15.6057 48.868 15.5415H48.8642C48.6311 15.4056 48.4883 15.1564 48.4883 14.8883C48.4883 14.6203 48.6274 14.3711 48.8567 14.2351C49.1499 14.0577 49.5296 14.0992 49.7702 14.3408C50.0146 14.5787 50.0709 14.9525 49.9055 15.2508C49.8078 15.4245 49.6386 15.5604 49.4469 15.6133C49.3792 15.6322 49.3116 15.6397 49.2401 15.6397H49.2364Z" fill="url(#paint12_linear_207_2306)"/>
<path d="M24.9996 29.7419C24.8719 29.7419 24.7403 29.7079 24.6238 29.6399C24.3908 29.504 24.248 29.2548 24.248 28.9867C24.248 28.7186 24.3908 28.4581 24.6238 28.3222L48.8625 14.2309C49.0955 14.0949 49.3811 14.0949 49.6141 14.2309C49.787 14.3328 49.9147 14.4989 49.9674 14.6915C50.02 14.8841 49.9937 15.0917 49.896 15.2654C49.8321 15.3787 49.7306 15.4844 49.6179 15.5486L25.3792 29.6399C25.2627 29.7079 25.1312 29.7419 25.0034 29.7419H24.9996Z" fill="url(#paint13_linear_207_2306)"/>
<defs>
<linearGradient id="paint0_linear_207_2306" x1="-33.3771" y1="1.32367" x2="21.4218" y2="53.4578" gradientUnits="userSpaceOnUse">
<stop stop-color="#59C4D2"/>
<stop offset="0.0001" stop-color="white"/>
<stop offset="1" stop-color="#26C8EB"/>
</linearGradient>
<linearGradient id="paint1_linear_207_2306" x1="-9.10663" y1="1.33443" x2="45.6525" y2="53.4305" gradientUnits="userSpaceOnUse">
<stop stop-color="#59C4D2"/>
<stop offset="0.0001" stop-color="white"/>
<stop offset="1" stop-color="#26C8EB"/>
</linearGradient>
<linearGradient id="paint2_linear_207_2306" x1="-33.3837" y1="37.2276" x2="39.6376" y2="85.1048" gradientUnits="userSpaceOnUse">
<stop stop-color="#59C4D2"/>
<stop offset="0.0001" stop-color="white"/>
<stop offset="1" stop-color="#26C8EB"/>
</linearGradient>
<linearGradient id="paint3_linear_207_2306" x1="-17.6727" y1="16.6405" x2="33.9836" y2="30.3107" gradientUnits="userSpaceOnUse">
<stop stop-color="#59C4D2"/>
<stop offset="0.0001" stop-color="white"/>
<stop offset="1" stop-color="#26C8EB"/>
</linearGradient>
<linearGradient id="paint4_linear_207_2306" x1="-9.13078" y1="37.2354" x2="63.8863" y2="85.1028" gradientUnits="userSpaceOnUse">
<stop stop-color="#59C4D2"/>
<stop offset="0.0001" stop-color="white"/>
<stop offset="1" stop-color="#26C8EB"/>
</linearGradient>
<linearGradient id="paint5_linear_207_2306" x1="46.5375" y1="14.2557" x2="51.1377" y2="16.8889" gradientUnits="userSpaceOnUse">
<stop stop-color="#59C4D2"/>
<stop offset="0.0001" stop-color="white"/>
<stop offset="1" stop-color="#26C8EB"/>
</linearGradient>
<linearGradient id="paint6_linear_207_2306" x1="18.7033" y1="16.65" x2="70.3437" y2="30.3192" gradientUnits="userSpaceOnUse">
<stop stop-color="#59C4D2"/>
<stop offset="0.0001" stop-color="white"/>
<stop offset="1" stop-color="#26C8EB"/>
</linearGradient>
<linearGradient id="paint7_linear_207_2306" x1="46.5289" y1="14.2584" x2="51.1285" y2="16.8995" gradientUnits="userSpaceOnUse">
<stop stop-color="#59C4D2"/>
<stop offset="0.0001" stop-color="white"/>
<stop offset="1" stop-color="#26C8EB"/>
</linearGradient>
<linearGradient id="paint8_linear_207_2306" x1="46.5267" y1="14.2496" x2="51.1227" y2="16.8828" gradientUnits="userSpaceOnUse">
<stop stop-color="#59C4D2"/>
<stop offset="0.0001" stop-color="white"/>
<stop offset="1" stop-color="#26C8EB"/>
</linearGradient>
<linearGradient id="paint9_linear_207_2306" x1="-64.8062" y1="15.4428" x2="-18.9666" y2="100.237" gradientUnits="userSpaceOnUse">
<stop stop-color="#59C4D2"/>
<stop offset="0.0001" stop-color="white"/>
<stop offset="1" stop-color="#26C8EB"/>
</linearGradient>
<linearGradient id="paint10_linear_207_2306" x1="-33.3769" y1="17.8381" x2="60.2611" y2="49.5788" gradientUnits="userSpaceOnUse">
<stop stop-color="#59C4D2"/>
<stop offset="0.0001" stop-color="white"/>
<stop offset="1" stop-color="#26C8EB"/>
</linearGradient>
<linearGradient id="paint11_linear_207_2306" x1="-9.12103" y1="17.8539" x2="84.4862" y2="49.5898" gradientUnits="userSpaceOnUse">
<stop stop-color="#59C4D2"/>
<stop offset="0.0001" stop-color="white"/>
<stop offset="1" stop-color="#26C8EB"/>
</linearGradient>
<linearGradient id="paint12_linear_207_2306" x1="46.5287" y1="14.2542" x2="51.1277" y2="16.9067" gradientUnits="userSpaceOnUse">
<stop stop-color="#59C4D2"/>
<stop offset="0.0001" stop-color="white"/>
<stop offset="1" stop-color="#26C8EB"/>
</linearGradient>
<linearGradient id="paint13_linear_207_2306" x1="-9.12819" y1="15.451" x2="45.6076" y2="67.5836" gradientUnits="userSpaceOnUse">
<stop stop-color="#59C4D2"/>
<stop offset="0.0001" stop-color="white"/>
<stop offset="1" stop-color="#26C8EB"/>
</linearGradient>
</defs>
</svg>
