<svg width="50" height="58" viewBox="0 0 50 58" fill="none" xmlns="http://www.w3.org/2000/svg">
<path d="M33.8607 24.6383C33.5996 24.6383 33.3422 24.5006 33.2022 24.2558C32.9941 23.8887 33.119 23.4221 33.4823 23.2117L41.2327 18.7179C41.596 18.5076 42.0577 18.6338 42.2658 19.001C42.474 19.3681 42.3491 19.8347 41.9858 20.045L34.2354 24.5388C34.1181 24.6077 33.9856 24.6421 33.8607 24.6421V24.6383Z" fill="url(#paint0_linear_207_2327)"/>
<path d="M25.0013 57.9954C24.7402 57.9954 24.4829 57.8577 24.3429 57.6091C24.1347 57.2419 24.2596 56.7753 24.6229 56.565L48.4721 42.7547V14.9544C48.4721 14.5337 48.8089 14.1895 49.229 14.1895C49.649 14.1895 49.9859 14.5337 49.9859 14.9544V43.1066C49.9896 43.1333 49.9934 43.1639 49.9934 43.1945C49.9934 43.4699 49.8534 43.7223 49.6188 43.86L25.3798 57.8959C25.2625 57.9648 25.13 57.9992 25.0051 57.9992L25.0013 57.9954Z" fill="url(#paint1_linear_207_2327)"/>
<path d="M25.0069 48.4073C24.5906 48.4073 24.25 48.0631 24.25 47.6424L24.2614 39.5803C24.2614 39.1596 24.6019 38.8154 25.0182 38.8154C25.4345 38.8154 25.7751 39.1596 25.7751 39.5803L25.7638 47.6424C25.7638 48.0631 25.4232 48.4073 25.0069 48.4073Z" fill="url(#paint2_linear_207_2327)"/>
<path d="M16.1394 24.5767C16.0108 24.5767 15.8783 24.5423 15.761 24.4735L8.00679 19.9338C7.64349 19.7234 7.52239 19.253 7.73053 18.8897C7.93867 18.5226 8.40415 18.4002 8.76367 18.6105L16.5179 23.1502C16.8812 23.3606 17.0023 23.831 16.7941 24.1943C16.6541 24.4391 16.4006 24.5767 16.1394 24.5767Z" fill="url(#paint3_linear_207_2327)"/>
<path d="M24.9997 57.996C24.871 57.996 24.7423 57.9616 24.6212 57.8927L0.378439 43.6962C0.143807 43.5585 0 43.3061 0 43.0345V14.802C0 14.3813 0.33681 14.0371 0.756877 14.0371C1.17694 14.0371 1.51375 14.3813 1.51375 14.802V42.5947L25.3781 56.5695C25.7414 56.7798 25.8625 57.2502 25.6544 57.6136C25.5143 57.8583 25.2608 57.996 24.9997 57.996Z" fill="url(#paint4_linear_207_2327)"/>
<path d="M49.2411 15.7273C49.1124 15.7273 48.9799 15.6929 48.8626 15.6241L24.9983 1.64932L1.13771 15.4673C0.774406 15.6776 0.312713 15.5514 0.104571 15.1843C-0.10357 14.8171 0.0213139 14.3505 0.384615 14.1402L24.6236 0.100393C24.8582 -0.0334645 25.1459 -0.0334645 25.3805 0.100393L49.6233 14.297C49.9866 14.5073 50.1077 14.9777 49.8995 15.3411C49.7595 15.5858 49.506 15.7235 49.2448 15.7235L49.2411 15.7273Z" fill="url(#paint5_linear_207_2327)"/>
<path d="M16.1394 24.5767C16.0108 24.5767 15.8783 24.5423 15.761 24.4735L8.00679 19.9338C7.64349 19.7234 7.52239 19.253 7.73053 18.8897C7.93867 18.5226 8.40415 18.4002 8.76367 18.6105L16.5179 23.1502C16.8812 23.3606 17.0023 23.831 16.7941 24.1943C16.6541 24.4391 16.4006 24.5767 16.1394 24.5767Z" fill="url(#paint6_linear_207_2327)"/>
<path d="M33.8607 24.6461C33.5996 24.6461 33.3423 24.5084 33.2022 24.2636C32.9941 23.8965 33.119 23.4299 33.4823 23.2196L41.2327 18.7258C41.596 18.5154 42.0577 18.6416 42.2658 19.0088C42.474 19.3759 42.3491 19.8425 41.9858 20.0529L34.2354 24.5467C34.118 24.6155 33.9856 24.6499 33.8607 24.6499V24.6461Z" fill="url(#paint7_linear_207_2327)"/>
<path d="M25.0013 40.0834C24.7402 40.0834 24.4829 39.9457 24.3429 39.6971C24.1347 39.3299 24.2596 38.8633 24.6229 38.653L33.0961 33.7461V23.8674C33.0961 23.4467 33.4329 23.1025 33.853 23.1025C34.2731 23.1025 34.6099 23.4467 34.6099 23.8674V34.1362C34.6099 34.1554 34.6099 34.1783 34.6099 34.1974C34.6061 34.469 34.4623 34.7176 34.2315 34.8514L25.3722 39.9801C25.2549 40.0489 25.1224 40.0834 24.9976 40.0834H25.0013Z" fill="url(#paint8_linear_207_2327)"/>
<path d="M25.0028 40.0822C24.8742 40.0822 24.7417 40.0478 24.6244 39.979L15.7652 34.7929C15.5305 34.6552 15.3867 34.4028 15.3867 34.1313V23.8128C15.3867 23.3921 15.7235 23.0479 16.1436 23.0479C16.5637 23.0479 16.9005 23.3921 16.9005 23.8128V33.6915L25.3813 38.6595C25.7446 38.8698 25.8657 39.3403 25.6575 39.7036C25.5175 39.9484 25.264 40.086 25.0028 40.086V40.0822Z" fill="url(#paint9_linear_207_2327)"/>
<path d="M33.8645 24.6357C33.7358 24.6357 33.6034 24.6013 33.4861 24.5325L25.0052 19.5644L16.5244 24.4751C16.1611 24.6855 15.6994 24.5592 15.4913 24.1921C15.2831 23.8249 15.408 23.3584 15.7713 23.148L24.6306 18.0193C24.8652 17.8855 25.1528 17.8855 25.3875 18.0193L34.2467 23.2054C34.61 23.4157 34.7311 23.8861 34.523 24.2495C34.383 24.4942 34.1294 24.6319 33.8683 24.6319L33.8645 24.6357Z" fill="url(#paint10_linear_207_2327)"/>
<path d="M24.9952 49.1142C24.8627 49.1142 24.734 49.0798 24.6167 49.0109C24.3821 48.8732 24.2383 48.6208 24.2383 48.3493V39.5835C24.2421 39.1628 24.5827 38.8186 24.9989 38.8186C25.4152 38.8186 25.7558 39.1628 25.7558 39.5835V47.0298L40.8442 38.2908V20.6981L34.2253 24.5341C33.862 24.7444 33.4003 24.6182 33.1921 24.251C32.984 23.8839 33.1089 23.4173 33.4722 23.207L41.2226 18.7132C41.4572 18.5755 41.7449 18.5793 41.9795 18.7132C42.2141 18.8508 42.3579 19.1033 42.3579 19.3748V38.658C42.3579 38.6809 42.3617 38.7039 42.3617 38.7268C42.3617 39.0022 42.2179 39.2546 41.9833 39.3923L25.3698 49.0109C25.2525 49.0798 25.1238 49.1104 24.9952 49.1104V49.1142Z" fill="url(#paint11_linear_207_2327)"/>
<path d="M24.9992 49.1144C24.8668 49.1144 24.7381 49.08 24.6208 49.0111L8.00734 39.2816C7.77271 39.1439 7.62891 38.8915 7.62891 38.6199V19.2717C7.62891 19.0002 7.77271 18.744 8.00734 18.6101C8.24198 18.4724 8.52959 18.4724 8.76422 18.6101L16.5184 23.1498C16.8817 23.3601 17.0028 23.8306 16.7947 24.1939C16.5866 24.561 16.1211 24.6834 15.7615 24.4731L9.14266 20.5988V38.1801L24.2424 47.0224V39.316C24.2424 38.8953 24.5792 38.5511 24.9992 38.5511C25.4193 38.5511 25.7561 38.8953 25.7561 39.316V48.3495C25.7561 48.621 25.6123 48.8773 25.3777 49.0111C25.2604 49.08 25.1317 49.1144 24.9992 49.1144Z" fill="url(#paint12_linear_207_2327)"/>
<path d="M33.8585 24.6419C33.5974 24.6419 33.34 24.5042 33.2 24.2594C32.9919 23.8923 33.1168 23.4257 33.4801 23.2153L40.0952 19.3794L24.9955 10.5371L9.89954 19.2799L16.5184 23.1541C16.8817 23.3645 17.0028 23.8349 16.7947 24.1982C16.5866 24.5654 16.1211 24.6878 15.7615 24.4774L8.00734 19.9377C7.77271 19.8001 7.62891 19.5476 7.62891 19.2723C7.62891 19.0007 7.7765 18.7445 8.01113 18.6106L24.6246 8.99199C24.8592 8.85814 25.1468 8.85814 25.3815 8.99199L41.9949 18.7215C42.2296 18.8592 42.3734 19.1116 42.3734 19.3832C42.3734 19.6585 42.2296 19.911 41.9949 20.0448L34.2407 24.5424C34.1234 24.6113 33.9909 24.6457 33.8661 24.6457L33.8585 24.6419Z" fill="url(#paint13_linear_207_2327)"/>
<path d="M24.9991 10.4141C24.5828 10.4141 24.2422 10.0699 24.2422 9.64923V0.764902C24.2422 0.344206 24.579 0 24.9991 0C25.4191 0 25.7559 0.344206 25.7559 0.764902V9.64923C25.7559 10.0699 25.4153 10.4141 24.9991 10.4141Z" fill="url(#paint14_linear_207_2327)"/>
<path d="M24.9991 29.7739C24.5828 29.7739 24.2422 29.4297 24.2422 29.009V18.679C24.2422 18.2583 24.5828 17.9141 24.9991 17.9141C25.4153 17.9141 25.7559 18.2583 25.7559 18.679V29.009C25.7559 29.4297 25.4153 29.7739 24.9991 29.7739Z" fill="url(#paint15_linear_207_2327)"/>
<path d="M33.8584 34.9527C33.7297 34.9527 33.601 34.9183 33.4799 34.8495L24.6396 29.6711C24.2763 29.4608 24.1552 28.9903 24.3633 28.627C24.5715 28.2599 25.037 28.1375 25.3965 28.3478L34.2368 33.5262C34.6001 33.7366 34.7212 34.207 34.5131 34.5703C34.373 34.8151 34.1195 34.9527 33.8584 34.9527Z" fill="url(#paint16_linear_207_2327)"/>
<path d="M16.1449 34.8944C15.8838 34.8944 15.6265 34.7567 15.4864 34.5082C15.2783 34.141 15.407 33.6744 15.7703 33.4641L24.6484 28.3469C25.0117 28.1365 25.4734 28.2666 25.6816 28.6337C25.8897 29.0009 25.761 29.4674 25.3977 29.6778L16.5196 34.795C16.4023 34.8638 16.2736 34.8944 16.1449 34.8944Z" fill="url(#paint17_linear_207_2327)"/>
<path d="M49.2371 43.9591C49.1084 43.9591 48.976 43.9247 48.8586 43.8558L41.2255 39.385C40.8622 39.1746 40.7411 38.7042 40.9493 38.3409C41.1574 37.9737 41.6229 37.8513 41.9824 38.0617L49.6155 42.5325C49.9788 42.7429 50.0999 43.2133 49.8918 43.5766C49.7518 43.8214 49.4982 43.9591 49.2371 43.9591Z" fill="url(#paint18_linear_207_2327)"/>
<path d="M0.763054 43.76C0.501931 43.76 0.244594 43.6223 0.104571 43.3737C-0.10357 43.0065 0.0213139 42.5399 0.384615 42.3296L8.01015 37.9123C8.37346 37.7019 8.83515 37.8281 9.04329 38.1953C9.25143 38.5624 9.12655 39.029 8.76325 39.2394L1.13771 43.6567C1.02039 43.7255 0.887938 43.76 0.763054 43.76Z" fill="url(#paint19_linear_207_2327)"/>
<defs>
<linearGradient id="paint0_linear_207_2327" x1="21.0908" y1="19.1265" x2="42.0931" y2="37.7776" gradientUnits="userSpaceOnUse">
<stop stop-color="#59C4D2"/>
<stop offset="0.0001" stop-color="white"/>
<stop offset="1" stop-color="#26C8EB"/>
</linearGradient>
<linearGradient id="paint1_linear_207_2327" x1="-9.14097" y1="17.8991" x2="84.4789" y2="49.6834" gradientUnits="userSpaceOnUse">
<stop stop-color="#59C4D2"/>
<stop offset="0.0001" stop-color="white"/>
<stop offset="1" stop-color="#26C8EB"/>
</linearGradient>
<linearGradient id="paint2_linear_207_2327" x1="22.2729" y1="39.6276" x2="28.4049" y2="40.1908" gradientUnits="userSpaceOnUse">
<stop stop-color="#59C4D2"/>
<stop offset="0.0001" stop-color="white"/>
<stop offset="1" stop-color="#26C8EB"/>
</linearGradient>
<linearGradient id="paint3_linear_207_2327" x1="-4.38438" y1="19.0217" x2="16.7502" y2="37.6611" gradientUnits="userSpaceOnUse">
<stop stop-color="#59C4D2"/>
<stop offset="0.0001" stop-color="white"/>
<stop offset="1" stop-color="#26C8EB"/>
</linearGradient>
<linearGradient id="paint4_linear_207_2327" x1="-33.3893" y1="17.7594" x2="60.3099" y2="49.4685" gradientUnits="userSpaceOnUse">
<stop stop-color="#59C4D2"/>
<stop offset="0.0001" stop-color="white"/>
<stop offset="1" stop-color="#26C8EB"/>
</linearGradient>
<linearGradient id="paint5_linear_207_2327" x1="-64.8111" y1="1.33175" x2="-18.4377" y2="86.4801" gradientUnits="userSpaceOnUse">
<stop stop-color="#59C4D2"/>
<stop offset="0.0001" stop-color="white"/>
<stop offset="1" stop-color="#26C8EB"/>
</linearGradient>
<linearGradient id="paint6_linear_207_2327" x1="-4.38438" y1="19.0217" x2="16.7502" y2="37.6611" gradientUnits="userSpaceOnUse">
<stop stop-color="#59C4D2"/>
<stop offset="0.0001" stop-color="white"/>
<stop offset="1" stop-color="#26C8EB"/>
</linearGradient>
<linearGradient id="paint7_linear_207_2327" x1="21.0908" y1="19.1343" x2="42.0931" y2="37.7854" gradientUnits="userSpaceOnUse">
<stop stop-color="#59C4D2"/>
<stop offset="0.0001" stop-color="white"/>
<stop offset="1" stop-color="#26C8EB"/>
</linearGradient>
<linearGradient id="paint8_linear_207_2327" x1="10.8018" y1="24.5404" x2="48.1891" y2="37.725" gradientUnits="userSpaceOnUse">
<stop stop-color="#59C4D2"/>
<stop offset="0.0001" stop-color="white"/>
<stop offset="1" stop-color="#26C8EB"/>
</linearGradient>
<linearGradient id="paint9_linear_207_2327" x1="1.94017" y1="24.4906" x2="39.3687" y2="37.6512" gradientUnits="userSpaceOnUse">
<stop stop-color="#59C4D2"/>
<stop offset="0.0001" stop-color="white"/>
<stop offset="1" stop-color="#26C8EB"/>
</linearGradient>
<linearGradient id="paint10_linear_207_2327" x1="-9.54374" y1="18.4877" x2="11.3328" y2="53.0166" gradientUnits="userSpaceOnUse">
<stop stop-color="#59C4D2"/>
<stop offset="0.0001" stop-color="white"/>
<stop offset="1" stop-color="#26C8EB"/>
</linearGradient>
<linearGradient id="paint11_linear_207_2327" x1="0.743594" y1="21.1942" x2="66.4844" y2="43.7549" gradientUnits="userSpaceOnUse">
<stop stop-color="#59C4D2"/>
<stop offset="0.0001" stop-color="white"/>
<stop offset="1" stop-color="#26C8EB"/>
</linearGradient>
<linearGradient id="paint12_linear_207_2327" x1="-15.8707" y1="21.0986" x2="49.9283" y2="43.6067" gradientUnits="userSpaceOnUse">
<stop stop-color="#59C4D2"/>
<stop offset="0.0001" stop-color="white"/>
<stop offset="1" stop-color="#26C8EB"/>
</linearGradient>
<linearGradient id="paint13_linear_207_2327" x1="-37.4128" y1="10.2256" x2="16.3024" y2="78.6492" gradientUnits="userSpaceOnUse">
<stop stop-color="#59C4D2"/>
<stop offset="0.0001" stop-color="white"/>
<stop offset="1" stop-color="#26C8EB"/>
</linearGradient>
<linearGradient id="paint14_linear_207_2327" x1="22.2798" y1="0.881842" x2="28.3745" y2="1.39353" gradientUnits="userSpaceOnUse">
<stop stop-color="#59C4D2"/>
<stop offset="0.0001" stop-color="white"/>
<stop offset="1" stop-color="#26C8EB"/>
</linearGradient>
<linearGradient id="paint15_linear_207_2327" x1="22.2798" y1="18.9183" x2="28.3843" y2="19.3684" gradientUnits="userSpaceOnUse">
<stop stop-color="#59C4D2"/>
<stop offset="0.0001" stop-color="white"/>
<stop offset="1" stop-color="#26C8EB"/>
</linearGradient>
<linearGradient id="paint16_linear_207_2327" x1="10.8404" y1="28.8131" x2="34.2294" y2="49.6639" gradientUnits="userSpaceOnUse">
<stop stop-color="#59C4D2"/>
<stop offset="0.0001" stop-color="white"/>
<stop offset="1" stop-color="#26C8EB"/>
</linearGradient>
<linearGradient id="paint17_linear_207_2327" x1="1.91149" y1="28.8091" x2="25.126" y2="49.7728" gradientUnits="userSpaceOnUse">
<stop stop-color="#59C4D2"/>
<stop offset="0.0001" stop-color="white"/>
<stop offset="1" stop-color="#26C8EB"/>
</linearGradient>
<linearGradient id="paint18_linear_207_2327" x1="28.9914" y1="38.4671" x2="49.8817" y2="56.8588" gradientUnits="userSpaceOnUse">
<stop stop-color="#59C4D2"/>
<stop offset="0.0001" stop-color="white"/>
<stop offset="1" stop-color="#26C8EB"/>
</linearGradient>
<linearGradient id="paint19_linear_207_2327" x1="-11.845" y1="38.3143" x2="8.88882" y2="56.7123" gradientUnits="userSpaceOnUse">
<stop stop-color="#59C4D2"/>
<stop offset="0.0001" stop-color="white"/>
<stop offset="1" stop-color="#26C8EB"/>
</linearGradient>
</defs>
</svg>
