<svg width="50" height="58" viewBox="0 0 50 58" fill="none" xmlns="http://www.w3.org/2000/svg">
<path d="M24.9925 57.9996C24.8659 57.9996 24.7392 57.9658 24.6274 57.9022L0.372634 43.7729C0.141601 43.6381 0 43.391 0 43.1251C0 42.8592 0.141601 42.612 0.372634 42.4772L24.5566 28.4116C24.5789 28.3966 24.6013 28.3817 24.6274 28.3667C24.8584 28.2319 25.1416 28.2281 25.3726 28.3629L49.6274 42.466C49.8584 42.6008 50 42.848 50 43.1138C50 43.3797 49.8584 43.6269 49.6274 43.7617L25.4434 57.846C25.4211 57.8647 25.395 57.8797 25.3726 57.8947C25.2534 57.9621 25.123 57.9958 24.9925 57.9958V57.9996ZM2.2358 43.1288L24.9925 56.3818L47.7679 43.1176L25.0112 29.8833L2.2358 43.1288Z" fill="url(#paint0_linear_207_2365)"/>
<path d="M0.745268 43.8745C0.614846 43.8745 0.48815 43.8408 0.372634 43.7734C0.141601 43.6386 0 43.3914 0 43.1255V14.8745C0 14.6086 0.141601 14.3614 0.372634 14.2266L24.6274 0.101111C24.8584 -0.0337035 25.1416 -0.0337035 25.3726 0.101111C25.6037 0.235925 25.7453 0.483088 25.7453 0.748971V29.0225C25.7453 29.2884 25.6037 29.5355 25.3726 29.6703L1.1179 43.7734C1.00238 43.8408 0.871963 43.8745 0.745268 43.8745ZM1.49054 15.3051V41.8261L24.2547 28.5881V2.04468L1.49054 15.3014V15.3051Z" fill="url(#paint1_linear_207_2365)"/>
<path d="M49.25 43.8745C49.1196 43.8745 48.9929 43.8408 48.8774 43.7734L24.6226 29.6703C24.3916 29.5355 24.25 29.2884 24.25 29.0225V0.748971C24.25 0.483088 24.3916 0.23218 24.6226 0.101111C24.8537 -0.0337035 25.1369 -0.0337035 25.3679 0.101111L49.6226 14.2266C49.8537 14.3614 49.9953 14.6086 49.9953 14.8745V43.1255C49.9953 43.3914 49.8537 43.6423 49.6226 43.7734C49.5071 43.8408 49.3804 43.8745 49.25 43.8745ZM25.7405 28.5881L48.5047 41.8261V15.3051L25.7405 2.04843V28.5918V28.5881Z" fill="url(#paint2_linear_207_2365)"/>
<path d="M17.3625 34.2166C16.9526 34.2166 16.6172 33.8795 16.6172 33.4676V5.28022C16.6172 4.86829 16.9526 4.53125 17.3625 4.53125C17.7724 4.53125 18.1077 4.86829 18.1077 5.28022V33.4676C18.1077 33.8795 17.7724 34.2166 17.3625 34.2166Z" fill="url(#paint3_linear_207_2365)"/>
<path d="M8.94839 38.7622C8.5385 38.7622 8.20312 38.4252 8.20312 38.0132V10.4999C8.20312 10.088 8.5385 9.75098 8.94839 9.75098C9.35829 9.75098 9.69366 10.088 9.69366 10.4999V38.0132C9.69366 38.4252 9.35829 38.7622 8.94839 38.7622Z" fill="url(#paint4_linear_207_2365)"/>
<path d="M49.2134 25.547C49.0867 25.547 48.9563 25.5133 48.837 25.4421L24.6643 11.1443C24.3103 10.9346 24.191 10.474 24.3997 10.1182C24.6084 9.76248 25.0667 9.64264 25.4207 9.85235L49.5935 24.1501C49.9475 24.3598 50.0667 24.8205 49.858 25.1762C49.7202 25.4121 49.4705 25.547 49.2134 25.547Z" fill="url(#paint5_linear_207_2365)"/>
<path d="M49.2516 35.2164C49.1249 35.2164 48.9945 35.1827 48.8752 35.1153L24.6615 20.8699C24.3075 20.6602 24.1882 20.2033 24.3932 19.8438C24.6018 19.4881 25.0565 19.3682 25.4142 19.5779L49.6279 33.8233C49.9819 34.033 50.1012 34.4899 49.8962 34.8494C49.7583 35.089 49.5087 35.2201 49.2516 35.2201V35.2164Z" fill="url(#paint6_linear_207_2365)"/>
<path d="M8.18613 48.2078C7.92901 48.2078 7.67935 48.073 7.54147 47.8333C7.33652 47.4738 7.45577 47.017 7.81349 46.811L31.8894 32.8203C32.2434 32.6143 32.7017 32.7342 32.9067 33.0937C33.1116 33.4532 32.9924 33.91 32.6346 34.116L8.55876 48.1067C8.44325 48.1741 8.31282 48.2078 8.18613 48.2078Z" fill="url(#paint7_linear_207_2365)"/>
<path d="M16.435 53.0119C16.1779 53.0119 15.9245 52.8771 15.7866 52.6374C15.5817 52.2779 15.7046 51.821 16.0624 51.6151L40.2724 37.6094C40.6301 37.4034 41.0847 37.527 41.2897 37.8865C41.4946 38.246 41.3717 38.7029 41.0139 38.9088L16.8039 52.9145C16.6884 52.9819 16.558 53.0156 16.4313 53.0156L16.435 53.0119Z" fill="url(#paint8_linear_207_2365)"/>
<defs>
<linearGradient id="paint0_linear_207_2365" x1="-64.8186" y1="30.7816" x2="39.5082" y2="132.103" gradientUnits="userSpaceOnUse">
<stop stop-color="#59C4D2"/>
<stop offset="0.0001" stop-color="white"/>
<stop offset="1" stop-color="#26C8EB"/>
</linearGradient>
<linearGradient id="paint1_linear_207_2365" x1="-33.3754" y1="3.71518" x2="60.2558" y2="35.449" gradientUnits="userSpaceOnUse">
<stop stop-color="#59C4D2"/>
<stop offset="0.0001" stop-color="white"/>
<stop offset="1" stop-color="#26C8EB"/>
</linearGradient>
<linearGradient id="paint2_linear_207_2365" x1="-9.12542" y1="3.71518" x2="84.5058" y2="35.449" gradientUnits="userSpaceOnUse">
<stop stop-color="#59C4D2"/>
<stop offset="0.0001" stop-color="white"/>
<stop offset="1" stop-color="#26C8EB"/>
</linearGradient>
<linearGradient id="paint3_linear_207_2365" x1="14.6849" y1="7.04493" x2="20.7233" y2="7.22005" gradientUnits="userSpaceOnUse">
<stop stop-color="#59C4D2"/>
<stop offset="0.0001" stop-color="white"/>
<stop offset="1" stop-color="#26C8EB"/>
</linearGradient>
<linearGradient id="paint4_linear_207_2365" x1="6.27084" y1="12.2076" x2="12.309" y2="12.3868" gradientUnits="userSpaceOnUse">
<stop stop-color="#59C4D2"/>
<stop offset="0.0001" stop-color="white"/>
<stop offset="1" stop-color="#26C8EB"/>
</linearGradient>
<linearGradient id="paint5_linear_207_2365" x1="-8.97316" y1="11.0868" x2="46.3645" y2="63.0099" gradientUnits="userSpaceOnUse">
<stop stop-color="#59C4D2"/>
<stop offset="0.0001" stop-color="white"/>
<stop offset="1" stop-color="#26C8EB"/>
</linearGradient>
<linearGradient id="paint6_linear_207_2365" x1="-9.02825" y1="20.8079" x2="46.1421" y2="72.8264" gradientUnits="userSpaceOnUse">
<stop stop-color="#59C4D2"/>
<stop offset="0.0001" stop-color="white"/>
<stop offset="1" stop-color="#26C8EB"/>
</linearGradient>
<linearGradient id="paint7_linear_207_2365" x1="-25.7007" y1="34.0312" x2="28.5997" y2="85.8007" gradientUnits="userSpaceOnUse">
<stop stop-color="#59C4D2"/>
<stop offset="0.0001" stop-color="white"/>
<stop offset="1" stop-color="#26C8EB"/>
</linearGradient>
<linearGradient id="paint8_linear_207_2365" x1="-17.6309" y1="38.8228" x2="36.7422" y2="90.8775" gradientUnits="userSpaceOnUse">
<stop stop-color="#59C4D2"/>
<stop offset="0.0001" stop-color="white"/>
<stop offset="1" stop-color="#26C8EB"/>
</linearGradient>
</defs>
</svg>
