<svg width="48" height="55" viewBox="0 0 48 55" fill="none" xmlns="http://www.w3.org/2000/svg">
<path fill-rule="evenodd" clip-rule="evenodd" d="M48 13.5507L24 0L0 13.5507V41.4186L24 55L48 41.4186V13.5507ZM31.7902 13.5507L24.7798 1.35644L46.3773 13.5507H31.7902ZM30.8683 13.5507L23.9999 1.60368L17.1316 13.5507H30.8683ZM16.6734 14.3478H31.3265L38.7732 27.3007L31.3265 40.2536H16.6734L9.22678 27.3007L16.6734 14.3478ZM16.2097 13.5507L23.2201 1.35655L1.62268 13.5507H16.2097ZM0.8 14.2465V40.3549L8.30483 27.3007L0.8 14.2465ZM8.76581 26.4989L1.7802 14.3478H15.7514L8.76581 26.4989ZM8.76581 28.1026L1.7802 40.2536H15.7514L8.76581 28.1026ZM16.2097 41.0507H0.969807L23.5584 53.8334L16.2097 41.0507ZM24.4414 53.8335L47.0302 41.0507H31.7902L24.4414 53.8335ZM30.8683 41.0507H17.1316L23.9999 52.9978L30.8683 41.0507ZM32.2485 40.2536H46.2198L39.2341 28.1026L32.2485 40.2536ZM39.6951 27.3007L47.2 40.3549V14.2465L39.6951 27.3007ZM39.2341 26.4989L32.2485 14.3478H46.2198L39.2341 26.4989Z" fill="url(#paint0_linear_207_2382)"/>
<defs>
<linearGradient id="paint0_linear_207_2382" x1="-62.2258" y1="4.65726" x2="92.9625" y2="82.8838" gradientUnits="userSpaceOnUse">
<stop stop-color="#59C4D2"/>
<stop offset="0.0001" stop-color="white"/>
<stop offset="1" stop-color="#26C8EB"/>
</linearGradient>
</defs>
</svg>
