<svg width="24" height="24" viewBox="0 0 24 24" fill="none" xmlns="http://www.w3.org/2000/svg">
<path fill-rule="evenodd" clip-rule="evenodd" d="M6.0849 4.49966C5.27874 4.49966 4.77586 5.22205 5.00616 5.9046C5.83193 8.35187 7.37076 12.0334 9.66559 14.3283C11.9604 16.6231 15.642 18.1619 18.0893 18.9877C18.7717 19.218 19.4942 18.7152 19.4942 17.9089V15.424C19.4942 15.3351 19.446 15.2532 19.3683 15.2099L17.2037 14.0065C17.133 13.9672 17.0475 13.9653 16.9752 14.0015L14.6668 15.1557C14.5225 15.2278 14.3584 15.2505 14.1999 15.2201L14.3383 14.4985C14.1999 15.2201 14.2001 15.2201 14.1999 15.2201L14.1978 15.2197L14.195 15.2191L14.1876 15.2177L14.1655 15.213C14.1475 15.2092 14.1231 15.2038 14.0929 15.1967C14.0325 15.1824 13.9484 15.1611 13.8448 15.1312C13.6379 15.0715 13.3513 14.977 13.0182 14.835C12.3548 14.5523 11.4889 14.0735 10.7046 13.2893C9.92044 12.5051 9.44026 11.6379 9.15625 10.9736C9.01361 10.64 8.91844 10.3528 8.85819 10.1456C8.82802 10.0418 8.80647 9.95761 8.79203 9.89711C8.7848 9.86685 8.77934 9.84247 8.77546 9.82448L8.77079 9.80233L8.7693 9.79497L8.76876 9.79223L8.76854 9.7911C8.76849 9.79086 8.76835 9.79013 9.48952 9.64985L8.76854 9.7911C8.7376 9.63203 8.75992 9.46623 8.83239 9.32129L9.98674 7.01254C10.0229 6.9403 10.0211 6.8548 9.98183 6.78411L8.78362 4.62573C8.78361 4.62572 8.78363 4.62574 8.78362 4.62573C8.7404 4.54791 8.65839 4.49966 8.56949 4.49966H6.0849ZM10.2688 9.73412C10.2689 9.73453 10.269 9.73494 10.2692 9.73535C10.3154 9.89435 10.3913 10.1247 10.5073 10.396C10.7406 10.9416 11.1277 11.6343 11.7436 12.2502C11.7436 12.2502 11.7436 12.2502 11.7436 12.2502L11.2241 12.7698M11.7436 12.2502C12.3594 12.866 13.0505 13.2516 13.5942 13.4833C13.8646 13.5985 14.094 13.6737 14.2523 13.7194C14.252 13.7193 14.2526 13.7195 14.2523 13.7194L16.318 12.6873C16.318 12.6873 16.318 12.6873 16.318 12.6873C16.8243 12.4341 17.423 12.4472 17.9177 12.7222L20.0823 13.9257C20.6262 14.2281 20.9636 14.8016 20.9636 15.424V17.9089C20.9636 19.6337 19.3351 20.9589 17.6195 20.3799C15.1414 19.5438 11.1776 17.9183 8.62657 15.3673C6.07556 12.8162 4.45004 8.85238 3.61389 6.37438C3.03503 4.65879 4.36016 3.03027 6.0849 3.03027H8.56949C9.19225 3.03027 9.76599 3.36802 10.0683 3.91246L11.2665 6.07094C11.5411 6.56546 11.554 7.16365 11.301 7.66966C11.301 7.66968 11.301 7.66964 11.301 7.66966L10.2688 9.73412" fill="#59C4D2"/>
</svg>
